<svg xmlns="http://www.w3.org/2000/svg" viewBox="0 0 20 20"><defs><style>.a{fill-rule:evenodd;}</style></defs><path class="a" d="M19.1,3.06a2.46,2.46,0,0,0-.67-1.49A2.46,2.46,0,0,0,16.94.9,15.09,15.09,0,0,0,15.05.83H5A15.09,15.09,0,0,0,3.06.9a2.46,2.46,0,0,0-1.49.67A2.46,2.46,0,0,0,.9,3.06,15.09,15.09,0,0,0,.83,5v10.1A15.09,15.09,0,0,0,.9,16.94a2.46,2.46,0,0,0,.67,1.49,2.46,2.46,0,0,0,1.49.67A15.09,15.09,0,0,0,5,19.17h10.1a15.09,15.09,0,0,0,1.89-.07,2.3,2.3,0,0,0,2.16-2.16,15.09,15.09,0,0,0,.07-1.89V5A15.09,15.09,0,0,0,19.1,3.06ZM9.17,17.5H5a15.36,15.36,0,0,1-1.72-.05.93.93,0,0,1-.54-.19.93.93,0,0,1-.19-.54A15.36,15.36,0,0,1,2.5,15V7.5H9.17Zm0-11.67H2.5V5a15.36,15.36,0,0,1,0-1.72.93.93,0,0,1,.19-.54.93.93,0,0,1,.54-.19A15.36,15.36,0,0,1,5,2.5H9.17ZM17.5,15a15.36,15.36,0,0,1-.05,1.72.93.93,0,0,1-.19.54.93.93,0,0,1-.54.19A15.36,15.36,0,0,1,15,17.5H10.83V14.17H17.5Zm0-2.5H10.83V2.5H15a15.36,15.36,0,0,1,1.72,0,.93.93,0,0,1,.54.19.93.93,0,0,1,.19.54A15.36,15.36,0,0,1,17.5,5Z"/></svg>